<?xml version="1.0" standalone="no"?>
<!DOCTYPE svg PUBLIC "-//W3C//DTD SVG 20010904//EN"
 "http://www.w3.org/TR/2001/REC-SVG-20010904/DTD/svg10.dtd">
<svg version="1.0" xmlns="http://www.w3.org/2000/svg"
 width="1000.000000pt" height="1000.000000pt" viewBox="0 0 1000.000000 1000.000000"
 preserveAspectRatio="xMidYMid meet">
<metadata>
Created by potrace 1.11, written by Peter Selinger 2001-2013
</metadata>
<g transform="translate(0.000000,1000.000000) scale(0.100000,-0.100000)"
fill="#000000" stroke="none">
<path d="M4880 9768 c-36 -4 -114 -10 -175 -13 -60 -3 -144 -14 -185 -24 -41
-10 -92 -19 -114 -20 -21 -1 -68 -9 -105 -17 -36 -9 -73 -17 -81 -19 -101 -21
-178 -38 -240 -55 -160 -42 -252 -69 -263 -78 -10 -7 -126 -46 -172 -57 -11
-2 -71 -27 -120 -49 -16 -7 -59 -26 -95 -42 -36 -15 -72 -34 -81 -41 -8 -7
-21 -13 -28 -13 -7 0 -33 -12 -59 -27 -26 -14 -60 -33 -77 -41 -16 -8 -66 -38
-110 -67 -102 -66 -144 -92 -175 -107 -36 -18 -190 -130 -290 -210 -112 -91
-110 -89 -145 -116 -100 -79 -318 -289 -410 -397 -27 -32 -57 -66 -66 -76 -17
-17 -81 -97 -112 -140 -77 -106 -194 -271 -215 -304 -14 -22 -28 -42 -32 -45
-4 -3 -20 -30 -36 -60 -16 -30 -48 -81 -71 -114 -24 -32 -43 -63 -43 -68 0 -5
-9 -21 -20 -35 -11 -14 -20 -33 -20 -43 0 -20 -90 -203 -102 -208 -4 -2 -8
-16 -8 -30 0 -15 -7 -36 -15 -46 -8 -11 -15 -28 -15 -38 0 -11 -9 -36 -19 -56
-26 -50 -105 -303 -135 -432 -65 -279 -94 -422 -101 -490 -4 -30 -14 -89 -23
-130 -14 -63 -16 -139 -16 -460 0 -280 3 -396 12 -425 7 -22 17 -80 22 -128 9
-95 20 -150 82 -412 22 -93 41 -178 43 -187 12 -55 91 -312 110 -353 30 -66
55 -124 55 -129 0 -5 56 -130 95 -211 8 -16 19 -41 25 -55 5 -14 27 -52 49
-85 21 -33 58 -97 81 -143 23 -45 46 -82 51 -82 5 0 9 -4 9 -10 0 -9 66 -108
80 -120 3 -3 17 -21 30 -40 14 -19 32 -44 42 -54 10 -11 18 -23 18 -27 0 -4 6
-14 12 -21 7 -7 26 -31 42 -53 17 -22 33 -42 36 -45 4 -3 26 -32 51 -65 24
-33 47 -61 51 -63 4 -2 29 -31 56 -65 61 -78 197 -217 282 -288 35 -30 80 -69
100 -87 123 -116 704 -522 747 -522 7 0 38 -16 70 -35 32 -19 63 -35 70 -35 6
0 39 -16 73 -35 34 -19 66 -35 71 -35 6 0 27 -9 49 -20 22 -11 46 -20 55 -20
9 0 23 -7 31 -15 9 -8 24 -15 33 -15 10 0 38 -9 62 -19 24 -11 57 -22 72 -25
16 -3 35 -10 42 -16 8 -7 70 -25 137 -41 68 -16 135 -34 149 -40 l26 -10 2
-252 c1 -139 6 -268 11 -287 5 -19 12 -50 15 -69 3 -19 8 -38 11 -42 2 -4 9
-31 15 -61 6 -29 12 -63 15 -76 16 -78 142 -273 237 -367 60 -59 184 -149 256
-185 34 -18 123 -47 199 -67 116 -30 159 -36 282 -40 140 -4 150 -3 293 31 81
20 171 48 200 62 80 40 227 146 287 207 66 65 70 70 144 175 54 77 68 108 80
172 2 14 11 54 21 89 15 57 16 151 14 969 l-3 905 -34 141 c-19 78 -36 153
-39 168 -3 16 -9 28 -14 28 -5 0 -8 3 -7 8 2 4 -26 48 -62 98 -54 75 -83 105
-167 168 -100 74 -145 94 -279 120 -10 2 -50 12 -89 21 -55 13 -125 18 -320
20 -252 2 -279 5 -485 51 -95 22 -232 65 -255 80 -11 8 -25 14 -31 14 -18 0
-268 121 -272 131 -2 5 -9 9 -15 9 -22 0 -192 109 -281 179 -41 33 -326 322
-326 332 0 5 -4 9 -8 9 -4 0 -16 13 -25 30 -10 16 -23 35 -30 42 -55 59 -227
368 -227 408 0 6 -8 24 -19 38 -17 25 -31 65 -30 86 1 5 -3 12 -8 15 -5 3 -22
47 -37 96 -15 50 -32 102 -36 118 -5 15 -7 27 -5 27 3 0 0 11 -5 24 -8 23 -19
110 -25 206 -2 25 -6 74 -10 110 -4 36 -8 70 -8 75 1 28 14 196 18 240 3 28 8
70 10 95 5 60 49 242 75 310 12 30 26 71 32 90 5 19 16 46 22 60 51 105 88
183 110 232 13 32 29 63 35 70 6 7 42 57 79 110 91 132 206 257 374 413 64 59
210 165 227 165 4 0 24 11 43 23 52 36 166 97 179 97 7 0 20 7 30 16 9 8 24
16 32 18 8 1 21 7 29 13 39 33 304 114 423 129 22 3 65 12 95 19 80 20 496 21
587 1 37 -8 86 -17 108 -19 22 -3 78 -14 125 -26 79 -20 118 -33 197 -67 17
-8 36 -14 42 -14 25 0 307 -152 412 -222 121 -81 278 -210 325 -268 16 -19 49
-55 74 -81 66 -67 84 -89 173 -223 79 -117 187 -318 187 -347 0 -8 7 -24 15
-35 14 -20 25 -48 64 -164 11 -30 40 -136 66 -235 64 -247 68 -257 137 -349
88 -116 121 -158 138 -175 29 -30 228 -171 256 -181 16 -6 31 -15 34 -20 5 -9
236 -71 320 -87 153 -29 514 42 615 121 11 9 65 48 120 87 100 72 121 91 162
145 12 16 29 38 38 49 8 11 33 45 55 75 22 30 43 60 47 65 9 12 10 15 28 92 7
28 17 57 21 65 5 7 9 18 10 23 1 6 6 28 12 50 6 22 13 51 15 65 3 14 10 45 17
70 19 70 16 175 -9 285 -92 400 -166 668 -207 746 -13 26 -24 54 -24 63 0 18
-66 164 -131 291 -106 206 -142 271 -187 334 -26 36 -47 68 -47 71 0 3 -8 16
-18 30 -10 14 -36 54 -59 90 -23 36 -45 67 -48 70 -3 3 -17 21 -32 40 -15 19
-39 49 -53 65 -15 17 -41 50 -58 75 -50 72 -60 83 -294 325 -32 33 -87 85
-122 115 -149 127 -166 143 -176 154 -14 15 -80 66 -140 106 -27 19 -52 37
-55 40 -10 13 -231 160 -273 181 -23 12 -56 32 -73 45 -17 13 -78 48 -135 78
-57 30 -122 63 -144 75 -102 53 -221 102 -339 141 -72 23 -142 48 -157 56 -16
8 -37 14 -49 14 -11 0 -31 7 -43 15 -18 11 -119 39 -217 60 -8 2 -35 8 -60 14
-25 5 -61 13 -80 16 -19 3 -51 10 -70 16 -19 6 -60 13 -90 15 -30 3 -80 12
-110 19 -30 8 -89 16 -130 20 -153 12 -194 16 -200 20 -13 8 -395 11 -460 3z"/>
</g>
</svg>
